<?xml version="1.0" encoding="UTF-8"?>
<svg id="Layer_2" data-name="Layer 2" xmlns="http://www.w3.org/2000/svg" viewBox="0 0 285.02 300.66">
  <defs>
    <style>
      .cls-1 {
        fill: #fff;
      }
    </style>
  </defs>
  <g id="Layer_1-2" data-name="Layer 1">
    <g>
      <path class="cls-1" d="M159.75,50.8v-.02s.02-.01,.02-.01c0,0-.01,.02-.02,.03Z"/>
      <path class="cls-1" d="M162.58,207.92c-1.86,.22-3.74,.39-5.63,.52,2.06-1.42,4.03-1.56,5.63-.52Z"/>
      <g>
        <path class="cls-1" d="M104.52,49.22c-4.4,6.08-23.14,32.02-33.66,46.79-15.98,8.2-29.71,20.14-40.07,34.68,.25-.39,.4-.71,.48-.92,.88-2.28,1.03-4.49-1.09-6.6-5.11-5.12-9.83-10.6-14.92-15.72-3.42-3.44-3.97-6.95-1.73-11.17,3.14-5.93,6.47-11.73,9.89-17.5,2.98-4.99,6.81-6.3,12.15-4.98,6.49,1.61,13.02,3.08,19.54,4.59,6.1,1.43,8.74-1.31,7.32-7.61-1.48-6.53-2.9-13.07-4.54-19.58-1.29-5.2,.1-8.96,4.87-11.71,6.11-3.52,12.03-7.35,18.43-10.35,3.77-1.76,6.88-1.18,9.85,1.72,4.19,4.08,8.46,8.09,12.87,11.95,2.41,2.1,2.6,3.67,.61,6.42Z"/>
        <path class="cls-1" d="M284.56,166.3c-.05,.81-.23,1.61-.44,2.43,.61,6.11-3.68,7.67-8.28,9.07-6.61,2.01-13.24,4.02-19.78,6.27-4.12,1.42-5.02,5.53-2.05,8.77,5,5.44,10,10.89,15.22,16.12,3.23,3.26,3.99,6.43,1.83,10.62-3.38,6.58-6.99,12.99-11.03,19.2-2.63,4.02-5.85,4.91-10.14,3.89-7.02-1.66-14.04-3.31-21.07-4.89-1.44-.32-2.7-.32-3.75-.04-2.66,.71-3.92,3.26-3.12,6.91,0,.04,.01,.08,.02,.12,1.63,7.19,3.19,14.42,4.96,21.58,1.01,4.07-.22,7.11-3.6,9.34-6.31,4.18-12.84,7.98-19.63,11.33-3.93,1.94-7.2,1.36-10.33-1.63-.83-.8-1.66-1.59-2.5-2.38-4.54-4.3-9.12-8.56-13.69-12.81-3.62-3.36-7.66-2.24-9.17,2.56-2.17,6.89-4.48,13.75-6.29,20.72-1.19,4.57-3.96,6.84-8.35,6.98-7.39,.22-14.8,.21-22.19,.03-4.42-.11-7.18-2.45-8.38-6.95-1.82-6.79-4.02-13.49-6.11-20.22-1.71-5.51-5.76-6.62-9.85-2.77-5.13,4.84-10.39,9.54-15.39,14.51-3.42,3.42-6.8,3.86-11.14,1.7-6.48-3.22-12.63-6.97-18.72-10.85-3.73-2.38-4.95-5.46-3.95-9.65,1.67-7.02,3.3-14.04,4.9-21.06,1.34-5.88-1.65-8.71-7.61-7.29-6.51,1.56-13.06,2.99-19.56,4.62-4.88,1.23-8.5,.32-11.38-4.33-3.72-5.99-7.22-12.09-10.49-18.35-2.11-4.04-1.56-7.4,1.7-10.7,5.06-5.13,9.9-10.49,14.8-15.79,3.69-4,2.64-7.95-2.59-9.59-5.33-1.67-10.67-3.38-16.02-4.98-1.55-.47-3.11-.92-4.67-1.36C2.33,176.21-.05,173.76,0,169.04c.09-7.22,.02-14.45,.02-21.67-.01-4.6,2.26-7.33,6.69-8.52,2.25-.6,3.95-1.14,4.46-1.22,10.09-1.71,15.19-2.6,18.09-5.15,.44-.39,.81-.8,1.1-1.17,.01-.02,.02-.04,.04-.05,.13-.19,.26-.35,.35-.52,.02-.02,.03-.04,.04-.06,10.36-14.53,24.09-26.48,40.07-34.68-3.1,4.36-5.49,7.75-6.57,9.36-4.94,7.33-10.99,18.43-14.89,34.21-2.76,18.35-1.85,36.32,5.28,53.69,14.72,35.82,50.92,61.68,94.58,59.01,36.77-2.25,72.24-30.4,83.27-67.38,.1-.34,.2-.67,.29-1.01,9.15-32.08-3.07-60.82-6.61-68.36-4.1-8.74-17.14-28-28.01-42.62-6.05-8.12-12.04-16.3-18.25-24.3-1.82-2.36-1.46-3.73,.62-5.57,4.63-4.09,9.08-8.4,13.61-12.64,2.37-2.21,4.94-2.82,8.04-1.53,7.81,3.26,14.89,7.79,21.87,12.47,3.07,2.06,3.55,5.23,2.71,8.74-1.74,7.34-3.43,14.69-5.02,22.07-.96,4.4,2.15,7.5,6.58,6.55,7.21-1.56,14.4-3.26,21.58-4.92,4.25-.98,7.43-.23,10.09,3.87,4.14,6.36,7.87,12.9,11.3,19.65,1.8,3.53,1.27,6.52-1.48,9.37-5.13,5.33-10.13,10.78-15.19,16.19-3.68,3.94-2.66,7.98,2.54,9.62,6.55,2.07,13.09,4.19,19.74,5.92,4.79,1.25,7.38,3.65,7.6,8.86,.26,6.37,.96,12.71,.03,19.04Z"/>
        <g id="miDU37">
          <g>
            <path class="cls-1" d="M190.45,118c-8.43-14.41-14.78-29.81-20.13-45.59l-13.92,13.92c1.02,1.38,1.84,2.91,2.66,4.45,1.41-1.15,2.27-2.8,3.89-2.82-.72,9.12,2.56,19.48-9.79,25.89h14.44v5.47h-38.01v-5.53h21.33c-2.35-6.28-7.81-7.39-12.78-9.19l-44.32,44.32c-.14,2.1-.2,4.23-.17,6.39,.11,6.82,.69,16.89,7.03,27.5,7.59,12.71,19.05,18.57,24.22,20.82,3.44-23.81,6.88-47.63,10.34-71.44h8.62c-.75,5.51-1.5,10.95-2.26,16.59h5.02v-20.72h-10.17v-5.52h25.65v5.38h-11.91v20.85h5.25c-.76-5.53-1.5-10.9-2.27-16.56h8.55c3.44,24,6.88,48.01,10.39,72.43,7.92-4.74,14.76-10.31,19.49-17.89,14.42-23.08,12.23-45.95-1.13-68.75Z"/>
            <path class="cls-1" d="M133.31,64.57c-.06-.02-.11-.04-.17-.06,.05-.07,.1-.08,.17,.06Z"/>
            <path class="cls-1" d="M150.72,208.8c1.47,.14,3.21,.19,5.17,0,3.33-.32,6.04-1.21,7.98-2.03-1.14-7.72-2.27-15.43-3.41-23.15h-10.25c.17,8.39,.34,16.79,.51,25.18Z"/>
            <path class="cls-1" d="M133.34,207.36c2.55,.68,5.62,1.26,9.12,1.43,1.46,.07,2.85,.06,4.13,0,0-8.43-.02-16.86-.02-25.29h-10.03c-1.07,7.95-2.13,15.9-3.2,23.85Z"/>
            <path class="cls-1" d="M150.21,177.72h9.4c-1.1-7.77-2.18-15.37-3.27-23.07h-6.12v23.07Z"/>
            <path class="cls-1" d="M146.54,154.67h-5.86c-1.1,7.69-2.17,15.2-3.28,22.97h9.14v-22.97Z"/>
            <path class="cls-1" d="M151.86,113.46c8.04-9.93,.43-15.54-3.41-21.89-2.15,2.46-1.21,5.19,.01,8.1-.69-.11-1.07-.18-1.87-.31,1.48,4.62,7.06,7.12,5.26,14.1Z"/>
          </g>
        </g>
        <path class="cls-1" d="M210.16,148.03c-.06-.26-.1-.52-.1-.76,.03,.26,.07,.51,.1,.76Z"/>
        <path class="cls-1" d="M212.74,204.66c-17.2,27.29-49.28,41.03-78.38,38.89,24.63-7.58,45.3-24.21,58.11-46,11.41-11.83,18.39-28.1,17.59-46.24-.06-1.36-.01-2.74-.01-4.11-.16-.67-.33-1.35-.36-2.06-2.59-15.18-6.03-30.17-10.92-44.79-1.66-4.99-3.41-9.96-4.77-15.11,10.46,12.97,19.43,26.8,25.43,42.4,1.74,4.53,3.93,11.03,5.13,19.3,4.52,31.06-10.86,56.26-11.79,57.73Z"/>
        <path class="cls-1" d="M192.46,197.55c-12.81,21.8-33.48,38.43-58.11,46-.5-.03-.98-.07-1.48-.11-18.8-1.74-32.36-9.82-38.3-13.87-25.53-17.42-32.49-43.7-33.89-49.55-5.44-22.68,.33-41.24,2.48-47.87,2.39-7.38,5.33-13.22,7.66-17.26,.71-1.64,1.49-3.25,2.3-4.83,13.14-4.67,25.19-11.63,35.67-20.4-.49,.78-.98,1.55-1.48,2.35-12.38,19.76-14.41,24.3-15.5,26.87-3.3,7.77-8.51,20.43-7.97,37.08,.21,6.68,1.28,12.12,2.18,15.74,6.63,20.91,20.42,35.07,41.02,42.14,24.29,8.34,49.29,.49,65.41-16.29Z"/>
        <path class="cls-1" d="M28.89,73.81c-1.87,1.58-3.69,3.22-5.46,4.95,1.55-2.6,3.34-4.21,5.46-4.95Z"/>
        <path class="cls-1" d="M269.23,208.97c3.23,3.26,3.99,6.43,1.83,10.62-3.38,6.58-6.99,12.99-11.03,19.2-2.63,4.02-5.85,4.91-10.14,3.89-.23-.05-.44-.1-.67-.15,3.16-10.87,4.86-22.37,4.86-34.25,0-5.77-.4-11.44-1.18-17,.27,.54,.64,1.06,1.11,1.57,5,5.44,10,10.89,15.22,16.12Z"/>
        <path class="cls-1" d="M284.56,166.3c-.05,.81-.23,1.61-.44,2.43,.61,6.11-3.68,7.67-8.28,9.07-6.61,2.01-13.24,4.02-19.78,6.27-2.06,.71-3.32,2.1-3.69,3.71-2.8-16.69-8.99-32.24-17.83-45.9-2.32-12.83-6.49-22.45-8.33-26.36-4.1-8.74-17.14-28-28.01-42.62-6.05-8.12-12.04-16.3-18.25-24.3-1.82-2.36-1.46-3.73,.62-5.57,4.63-4.09,9.08-8.4,13.61-12.64,2.37-2.21,4.94-2.82,8.04-1.53,7.81,3.26,14.89,7.79,21.87,12.47,3.07,2.06,3.55,5.23,2.71,8.74-1.74,7.34-3.43,14.69-5.02,22.07-.96,4.4,2.15,7.5,6.58,6.55,7.21-1.56,14.4-3.26,21.58-4.92,4.25-.98,7.43-.23,10.09,3.87,4.14,6.36,7.87,12.9,11.3,19.65,1.8,3.53,1.27,6.52-1.48,9.37-5.13,5.33-10.13,10.78-15.19,16.19-3.68,3.94-2.66,7.98,2.54,9.62,6.55,2.07,13.09,4.19,19.74,5.92,4.79,1.25,7.38,3.65,7.6,8.86,.26,6.37,.96,12.71,.03,19.04Z"/>
        <path class="cls-1" d="M254.08,208.28c0,11.89-1.7,23.38-4.86,34.25-6.79-1.61-13.59-3.2-20.4-4.73-5.15-1.16-8.03,1.83-6.85,7,1.63,7.19,3.19,14.42,4.96,21.58,1.01,4.07-.22,7.11-3.6,9.34-6.31,4.18-12.84,7.98-19.63,11.33-3.93,1.94-7.2,1.36-10.33-1.63-5.34-5.12-10.78-10.15-16.2-15.18-3.62-3.36-7.66-2.24-9.17,2.56-2.17,6.89-4.48,13.75-6.29,20.72-1.19,4.57-3.96,6.84-8.35,6.98-7.39,.22-14.8,.21-22.19,.03-4.42-.11-7.18-2.45-8.38-6.95-1.82-6.79-4.02-13.49-6.11-20.22-.66-2.12-1.66-3.59-2.88-4.36,18.44-2.19,35.48-8.88,50.01-18.97,31.22-7.66,59.15-33.07,68.71-65.13,4.71-15.81,4.2-30.85,2.01-43.02,8.84,13.66,15.03,29.21,17.83,45.9-.25,1.11-.08,2.32,.54,3.49,.78,5.56,1.18,11.23,1.18,17Z"/>
        <path class="cls-1" d="M252.9,191.28c-.62-1.18-.79-2.39-.54-3.49,.21,1.16,.38,2.33,.54,3.49Z"/>
        <path class="cls-1" d="M133.47,47.69c-2.42,5.93-5.36,11.73-8.82,17.4-.03,.09-.08,.18-.16,.28-3.95,5.93-9.37,14.23-15.71,24.29-10.48,8.77-22.53,15.73-35.67,20.4,4.74-9.23,11-17.5,17.17-25.81,4.75-6.42,9.64-12.72,14.47-19.08,4.82-6.81,9.54-13.68,13.97-20.71,6.56-10.37,12.53-21.08,17.34-32.47,1.72-4.05,3.41-8.09,5.55-11.99,.78,16.83-2.03,32.69-8.15,47.69Z"/>
        <path class="cls-1" d="M170.32,72.41l-13.92,13.92c-1.15-1.58-2.55-2.98-4.51-4.01-.27,1.73-.5,3.16-.83,5.29-3.69-5.54-2.53-10.13,1.4-15.65-6.95,3.35-10.79,7.81-13.8,13.36-.28-4.68,6.47-6.86,3.71-12.06-.28-.54-.74-.96-1.73-2.2,.88,9.95-11.77,15.86-5.21,26.22-2.27,.4-2.74-1.78-4.51-2.41-.59,5,1.88,7.67,6.04,9.3,.38,.14,.76,.29,1.16,.42l-44.32,44.32c1.34-20.7,10.75-38.94,21.67-56.47,3.16-5.07,6.45-10.07,9.84-15.37,2.96-4.31,5.91-8.62,8.86-12.93h.03c8.8-11.83,17.23-23.97,25.46-37.26,1.54,14.96,5.02,28.51,9.41,41.83,.4,1.23,.82,2.46,1.25,3.69Z"/>
      </g>
    </g>
  </g>
</svg>