<?xml version="1.0" encoding="UTF-8"?>
<svg id="Layer_2" data-name="Layer 2" xmlns="http://www.w3.org/2000/svg" viewBox="0 0 630.94 317.41">
  <defs>
    <style>
      .cls-1 {
        font-size: 14.48px;
      }

      .cls-1, .cls-2, .cls-3, .cls-4, .cls-5, .cls-6 {
        fill: #fff;
      }

      .cls-1, .cls-2, .cls-5 {
        font-family: Peyda-Regular, Peyda;
      }

      .cls-2 {
        font-size: 34.36px;
      }

      .cls-4 {
        font-size: 35.48px;
      }

      .cls-4, .cls-6 {
        font-family: Peyda-ExtraBold, Peyda;
        font-weight: 700;
      }

      .cls-5 {
        font-size: 18.73px;
      }

      .cls-6 {
        font-size: 79.23px;
      }
    </style>
  </defs>
  <g id="Layer_1-2" data-name="Layer 1">
    <g>
      <path class="cls-3" d="M505.67,62.53v-.02s.02-.01,.02-.01c0,0-.01,.02-.02,.03Z"/>
      <path class="cls-3" d="M508.49,219.65c-1.86,.22-3.74,.39-5.63,.52,2.06-1.42,4.03-1.56,5.63-.52Z"/>
      <g>
        <path class="cls-3" d="M450.44,60.95c-4.4,6.08-23.14,32.02-33.66,46.79-15.98,8.2-29.71,20.14-40.07,34.68,.25-.39,.4-.71,.48-.92,.88-2.28,1.03-4.49-1.09-6.6-5.11-5.12-9.83-10.6-14.92-15.72-3.42-3.44-3.97-6.95-1.73-11.17,3.14-5.93,6.47-11.73,9.89-17.5,2.98-4.99,6.81-6.3,12.15-4.98,6.49,1.61,13.02,3.08,19.54,4.59,6.1,1.43,8.74-1.31,7.32-7.61-1.48-6.53-2.9-13.07-4.54-19.58-1.29-5.2,.1-8.96,4.87-11.71,6.11-3.52,12.03-7.35,18.43-10.35,3.77-1.76,6.88-1.18,9.85,1.72,4.19,4.08,8.46,8.09,12.87,11.95,2.41,2.1,2.6,3.67,.61,6.42Z"/>
        <path class="cls-3" d="M630.47,178.03c-.05,.81-.23,1.61-.44,2.43,.61,6.11-3.68,7.67-8.28,9.07-6.61,2.01-13.24,4.02-19.78,6.27-4.12,1.42-5.02,5.53-2.05,8.77,5,5.44,10,10.89,15.22,16.12,3.23,3.26,3.99,6.43,1.83,10.62-3.38,6.58-6.99,12.99-11.03,19.2-2.63,4.02-5.85,4.91-10.14,3.89-7.02-1.66-14.04-3.31-21.07-4.89-1.44-.32-2.7-.32-3.75-.04-2.66,.71-3.92,3.26-3.12,6.91,0,.04,.01,.08,.02,.12,1.63,7.19,3.19,14.42,4.96,21.58,1.01,4.07-.22,7.11-3.6,9.34-6.31,4.18-12.84,7.98-19.63,11.33-3.93,1.94-7.2,1.36-10.33-1.63-.83-.8-1.66-1.59-2.5-2.38-4.54-4.3-9.12-8.56-13.69-12.81-3.62-3.36-7.66-2.24-9.17,2.56-2.17,6.89-4.48,13.75-6.29,20.72-1.19,4.57-3.96,6.84-8.35,6.98-7.39,.22-14.8,.21-22.19,.03-4.42-.11-7.18-2.45-8.38-6.95-1.82-6.79-4.02-13.49-6.11-20.22-1.71-5.51-5.76-6.62-9.85-2.77-5.13,4.84-10.39,9.54-15.39,14.51-3.42,3.42-6.8,3.86-11.14,1.7-6.48-3.22-12.63-6.97-18.72-10.85-3.73-2.38-4.95-5.46-3.95-9.65,1.67-7.02,3.3-14.04,4.9-21.06,1.34-5.88-1.65-8.71-7.61-7.29-6.51,1.56-13.06,2.99-19.56,4.62-4.88,1.23-8.5,.32-11.38-4.33-3.72-5.99-7.22-12.09-10.49-18.35-2.11-4.04-1.56-7.4,1.7-10.7,5.06-5.13,9.9-10.49,14.8-15.79,3.69-4,2.64-7.95-2.59-9.59-5.33-1.67-10.67-3.38-16.02-4.98-1.55-.47-3.11-.92-4.67-1.36-4.38-1.25-6.76-3.7-6.71-8.42,.09-7.22,.02-14.45,.02-21.67-.01-4.6,2.26-7.33,6.69-8.52,2.25-.6,3.95-1.14,4.46-1.22,10.09-1.71,15.19-2.6,18.09-5.15,.44-.39,.81-.8,1.1-1.17,.01-.02,.02-.04,.04-.05,.13-.19,.26-.35,.35-.52,.02-.02,.03-.04,.04-.06,10.36-14.53,24.09-26.48,40.07-34.68-3.1,4.36-5.49,7.75-6.57,9.36-4.94,7.33-10.99,18.43-14.89,34.21-2.76,18.35-1.85,36.32,5.28,53.69,14.72,35.82,50.92,61.68,94.58,59.01,36.77-2.25,72.24-30.4,83.27-67.38,.1-.34,.2-.67,.29-1.01,9.15-32.08-3.07-60.82-6.61-68.36-4.1-8.74-17.14-28-28.01-42.62-6.05-8.12-12.04-16.3-18.25-24.3-1.82-2.36-1.46-3.73,.62-5.57,4.63-4.09,9.08-8.4,13.61-12.64,2.37-2.21,4.94-2.82,8.04-1.53,7.81,3.26,14.89,7.79,21.87,12.47,3.07,2.06,3.55,5.23,2.71,8.74-1.74,7.34-3.43,14.69-5.02,22.07-.96,4.4,2.15,7.5,6.58,6.55,7.21-1.56,14.4-3.26,21.58-4.92,4.25-.98,7.43-.23,10.09,3.87,4.14,6.36,7.87,12.9,11.3,19.65,1.8,3.53,1.27,6.52-1.48,9.37-5.13,5.33-10.13,10.78-15.19,16.19-3.68,3.94-2.66,7.98,2.54,9.62,6.55,2.07,13.09,4.19,19.74,5.92,4.79,1.25,7.38,3.65,7.6,8.86,.26,6.37,.96,12.71,.03,19.04Z"/>
        <g id="miDU37">
          <g>
            <path class="cls-3" d="M536.37,129.73c-8.43-14.41-14.78-29.81-20.13-45.59l-13.92,13.92c1.02,1.38,1.84,2.91,2.66,4.45,1.41-1.15,2.27-2.8,3.89-2.82-.72,9.12,2.56,19.48-9.79,25.89h14.44v5.47h-38.01v-5.53h21.33c-2.35-6.28-7.81-7.39-12.78-9.19l-44.32,44.32c-.14,2.1-.2,4.23-.17,6.39,.11,6.82,.69,16.89,7.03,27.5,7.59,12.71,19.05,18.57,24.22,20.82,3.44-23.81,6.88-47.63,10.34-71.44h8.62c-.75,5.51-1.5,10.95-2.26,16.59h5.02v-20.72h-10.17v-5.52h25.65v5.38h-11.91v20.85h5.25c-.76-5.53-1.5-10.9-2.27-16.56h8.55c3.44,24,6.88,48.01,10.39,72.43,7.92-4.74,14.76-10.31,19.49-17.89,14.42-23.08,12.23-45.95-1.13-68.75Z"/>
            <path class="cls-3" d="M479.23,76.3c-.06-.02-.11-.04-.17-.06,.05-.07,.1-.08,.17,.06Z"/>
            <path class="cls-3" d="M496.64,220.52c1.47,.14,3.21,.19,5.17,0,3.33-.32,6.04-1.21,7.98-2.03-1.14-7.72-2.27-15.43-3.41-23.15h-10.25c.17,8.39,.34,16.79,.51,25.18Z"/>
            <path class="cls-3" d="M479.26,219.09c2.55,.68,5.62,1.26,9.12,1.43,1.46,.07,2.85,.06,4.13,0,0-8.43-.02-16.86-.02-25.29h-10.03c-1.07,7.95-2.13,15.9-3.2,23.85Z"/>
            <path class="cls-3" d="M496.12,189.45h9.4c-1.1-7.77-2.18-15.37-3.27-23.07h-6.12v23.07Z"/>
            <path class="cls-3" d="M492.46,166.4h-5.86c-1.1,7.69-2.17,15.2-3.28,22.97h9.14v-22.97Z"/>
            <path class="cls-3" d="M497.77,125.19c8.04-9.93,.43-15.54-3.41-21.89-2.15,2.46-1.21,5.19,.01,8.1-.69-.11-1.07-.18-1.87-.31,1.48,4.62,7.06,7.12,5.26,14.1Z"/>
          </g>
        </g>
        <path class="cls-3" d="M556.08,159.76c-.06-.26-.1-.52-.1-.76,.03,.26,.07,.51,.1,.76Z"/>
        <path class="cls-3" d="M558.65,216.39c-17.2,27.29-49.28,41.03-78.38,38.89,24.63-7.58,45.3-24.21,58.11-46,11.41-11.83,18.39-28.1,17.59-46.24-.06-1.36-.01-2.74-.01-4.11-.16-.67-.33-1.35-.36-2.06-2.59-15.18-6.03-30.17-10.92-44.79-1.66-4.99-3.41-9.96-4.77-15.11,10.46,12.97,19.43,26.8,25.43,42.4,1.74,4.53,3.93,11.03,5.13,19.3,4.52,31.06-10.86,56.26-11.79,57.73Z"/>
        <path class="cls-3" d="M538.37,209.28c-12.81,21.8-33.48,38.43-58.11,46-.5-.03-.98-.07-1.48-.11-18.8-1.74-32.36-9.82-38.3-13.87-25.53-17.42-32.49-43.7-33.89-49.55-5.44-22.68,.33-41.24,2.48-47.87,2.39-7.38,5.33-13.22,7.66-17.26,.71-1.64,1.49-3.25,2.3-4.83,13.14-4.67,25.19-11.63,35.67-20.4-.49,.78-.98,1.55-1.48,2.35-12.38,19.76-14.41,24.3-15.5,26.87-3.3,7.77-8.51,20.43-7.97,37.08,.21,6.68,1.28,12.12,2.18,15.74,6.63,20.91,20.42,35.07,41.02,42.14,24.29,8.34,49.29,.49,65.41-16.29Z"/>
        <path class="cls-3" d="M374.81,85.53c-1.87,1.58-3.69,3.22-5.46,4.95,1.55-2.6,3.34-4.21,5.46-4.95Z"/>
        <path class="cls-3" d="M615.15,220.7c3.23,3.26,3.99,6.43,1.83,10.62-3.38,6.58-6.99,12.99-11.03,19.2-2.63,4.02-5.85,4.91-10.14,3.89-.23-.05-.44-.1-.67-.15,3.16-10.87,4.86-22.37,4.86-34.25,0-5.77-.4-11.44-1.18-17,.27,.54,.64,1.06,1.11,1.57,5,5.44,10,10.89,15.22,16.12Z"/>
        <path class="cls-3" d="M630.47,178.03c-.05,.81-.23,1.61-.44,2.43,.61,6.11-3.68,7.67-8.28,9.07-6.61,2.01-13.24,4.02-19.78,6.27-2.06,.71-3.32,2.1-3.69,3.71-2.8-16.69-8.99-32.24-17.83-45.9-2.32-12.83-6.49-22.45-8.33-26.36-4.1-8.74-17.14-28-28.01-42.62-6.05-8.12-12.04-16.3-18.25-24.3-1.82-2.36-1.46-3.73,.62-5.57,4.63-4.09,9.08-8.4,13.61-12.64,2.37-2.21,4.94-2.82,8.04-1.53,7.81,3.26,14.89,7.79,21.87,12.47,3.07,2.06,3.55,5.23,2.71,8.74-1.74,7.34-3.43,14.69-5.02,22.07-.96,4.4,2.15,7.5,6.58,6.55,7.21-1.56,14.4-3.26,21.58-4.92,4.25-.98,7.43-.23,10.09,3.87,4.14,6.36,7.87,12.9,11.3,19.65,1.8,3.53,1.27,6.52-1.48,9.37-5.13,5.33-10.13,10.78-15.19,16.19-3.68,3.94-2.66,7.98,2.54,9.62,6.55,2.07,13.09,4.19,19.74,5.92,4.79,1.25,7.38,3.65,7.6,8.86,.26,6.37,.96,12.71,.03,19.04Z"/>
        <path class="cls-3" d="M599.99,220.01c0,11.89-1.7,23.38-4.86,34.25-6.79-1.61-13.59-3.2-20.4-4.73-5.15-1.16-8.03,1.83-6.85,7,1.63,7.19,3.19,14.42,4.96,21.58,1.01,4.07-.22,7.11-3.6,9.34-6.31,4.18-12.84,7.98-19.63,11.33-3.93,1.94-7.2,1.36-10.33-1.63-5.34-5.12-10.78-10.15-16.2-15.18-3.62-3.36-7.66-2.24-9.17,2.56-2.17,6.89-4.48,13.75-6.29,20.72-1.19,4.57-3.96,6.84-8.35,6.98-7.39,.22-14.8,.21-22.19,.03-4.42-.11-7.18-2.45-8.38-6.95-1.82-6.79-4.02-13.49-6.11-20.22-.66-2.12-1.66-3.59-2.88-4.36,18.44-2.19,35.48-8.88,50.01-18.97,31.22-7.66,59.15-33.07,68.71-65.13,4.71-15.81,4.2-30.85,2.01-43.02,8.84,13.66,15.03,29.21,17.83,45.9-.25,1.11-.08,2.32,.54,3.49,.78,5.56,1.18,11.23,1.18,17Z"/>
        <path class="cls-3" d="M598.82,203.01c-.62-1.18-.79-2.39-.54-3.49,.21,1.16,.38,2.33,.54,3.49Z"/>
        <path class="cls-3" d="M479.39,59.42c-2.42,5.93-5.36,11.73-8.82,17.4-.03,.09-.08,.18-.16,.28-3.95,5.93-9.37,14.23-15.71,24.29-10.48,8.77-22.53,15.73-35.67,20.4,4.74-9.23,11-17.5,17.17-25.81,4.75-6.42,9.64-12.72,14.47-19.08,4.82-6.81,9.54-13.68,13.97-20.71,6.56-10.37,12.53-21.08,17.34-32.47,1.72-4.05,3.41-8.09,5.55-11.99,.78,16.83-2.03,32.69-8.15,47.69Z"/>
        <path class="cls-3" d="M516.24,84.14l-13.92,13.92c-1.15-1.58-2.55-2.98-4.51-4.01-.27,1.73-.5,3.16-.83,5.29-3.69-5.54-2.53-10.13,1.4-15.65-6.95,3.35-10.79,7.81-13.8,13.36-.28-4.68,6.47-6.86,3.71-12.06-.28-.54-.74-.96-1.73-2.2,.88,9.95-11.77,15.86-5.21,26.22-2.27,.4-2.74-1.78-4.51-2.41-.59,5,1.88,7.67,6.04,9.3,.38,.14,.76,.29,1.16,.42l-44.32,44.32c1.34-20.7,10.75-38.94,21.67-56.47,3.16-5.07,6.45-10.07,9.84-15.37,2.96-4.31,5.91-8.62,8.86-12.93h.03c8.8-11.83,17.23-23.97,25.46-37.26,1.54,14.96,5.02,28.51,9.41,41.83,.4,1.23,.82,2.46,1.25,3.69Z"/>
      </g>
      <g>
        <g>
          <path class="cls-3" d="M143.65,171.01h.58c.11,0,.2,.04,.27,.12,.07,.08,.11,.18,.11,.29v1.45c0,.26-.13,.38-.38,.38h-.52c-.7,0-1.33-.18-1.89-.53-.57-.36-1.02-.86-1.37-1.52-.37,.66-.86,1.17-1.47,1.52-.61,.36-1.27,.53-1.96,.53h-3.76c-.4,0-.78-.08-1.14-.23-.36-.16-.67-.37-.93-.64-.26-.27-.48-.59-.63-.95-.16-.36-.23-.74-.23-1.14v-2.91h1.62v2.41c0,.33,.09,.61,.27,.85,.18,.24,.46,.36,.82,.36h4c.38,0,.73-.08,1.04-.25s.57-.38,.78-.66c.21-.27,.35-.58,.42-.92,.07-.34,.06-.68-.03-1.03l-2.03-7.37,1.78-.66,2.6,9.32c.13,.46,.38,.83,.75,1.12,.38,.29,.8,.44,1.28,.44Z"/>
          <path class="cls-3" d="M154.09,172.87c0,.26-.13,.38-.38,.38h-1.7c-.31,0-.62-.05-.93-.14-.31-.09-.6-.22-.88-.38-.27-.16-.51-.36-.71-.58s-.34-.46-.41-.71c-.31,.53-.75,.96-1.33,1.3-.58,.34-1.18,.51-1.82,.51h-1.7c-.26,0-.38-.13-.38-.38v-1.45c0-.11,.04-.21,.11-.29,.07-.08,.16-.12,.27-.12h1.78c.53,0,.99-.16,1.38-.49,.39-.33,.64-.74,.75-1.23l.85-4.33,1.86,.3-.71,3.62c-.05,.27-.05,.54,.03,.81,.07,.26,.2,.49,.38,.69s.4,.35,.66,.47c.26,.12,.53,.18,.82,.18h1.67c.11,0,.2,.04,.27,.12,.07,.08,.11,.18,.11,.29v1.45Zm-6.06-11.18h2.33v-2.33h-2.33v2.33Z"/>
          <path class="cls-3" d="M157.02,171.01c.55,0,1.01-.19,1.4-.58,.38-.38,.58-.84,.58-1.37v-5.04h1.89v5.04c0,.58-.11,1.13-.33,1.64-.22,.51-.52,.95-.9,1.33-.38,.38-.83,.67-1.33,.89s-1.05,.33-1.63,.33h-2.99c-.26,0-.38-.13-.38-.38v-1.45c0-.11,.04-.21,.11-.29,.07-.08,.16-.12,.27-.12h3.32Zm-3.21,7.87h2.33v-2.33h-2.33v2.33Zm3.76,0h2.33v-2.33h-2.33v2.33Z"/>
          <path class="cls-3" d="M160.75,156.7v-1.04c0-.62,.2-1.13,.59-1.53s.91-.6,1.55-.6h5.21v1.67h-5.24c-.18,0-.34,.07-.48,.21s-.21,.31-.21,.51v.79h-1.42Zm5.29,16.56h-1.89v-15.87h1.89v15.87Z"/>
          <path class="cls-3" d="M172.45,164.81v4.3c0,.53,.2,.98,.59,1.34,.39,.37,.85,.55,1.38,.55h2.74c.11,0,.2,.04,.27,.12,.07,.08,.11,.18,.11,.29v1.45c0,.26-.13,.38-.38,.38h-2.41c-.44,0-.87-.09-1.29-.27-.42-.18-.76-.46-1.01-.82v1.21c0,.64-.1,1.26-.3,1.85-.2,.59-.48,1.14-.84,1.63-.36,.49-.79,.93-1.3,1.3-.51,.37-1.07,.66-1.67,.86l-3.12,1.1-.6-1.89,3.32-1.1c.8-.26,1.44-.72,1.92-1.4,.48-.68,.71-1.43,.71-2.25v-8.66h1.89Z"/>
          <path class="cls-3" d="M187.91,169.01c0,.58-.11,1.14-.33,1.66-.22,.52-.52,.97-.9,1.36s-.84,.69-1.36,.9-1.07,.33-1.66,.33h-6.5c-.11,0-.2-.04-.27-.12-.07-.08-.11-.18-.11-.29v-1.43c0-.11,.04-.21,.12-.29,.08-.08,.17-.12,.26-.12h6.66c.58,0,1.1-.16,1.54-.49,.44-.33,.66-.87,.66-1.62v-.38c-.35,.15-.72,.22-1.12,.22h-2.66c-.57,0-1.09-.12-1.58-.36-.48-.24-.89-.56-1.22-.96-.33-.4-.56-.86-.7-1.38-.14-.52-.15-1.06-.04-1.6l.41-2.3c.16-.86,.58-1.56,1.25-2.11,.67-.55,1.43-.82,2.29-.82h1.45c.53,0,1.03,.1,1.49,.3,.46,.2,.87,.48,1.21,.82,.34,.35,.61,.75,.81,1.22s.3,.96,.3,1.49v5.98Zm-5.87-2.49h4v-3.51c0-.48-.17-.88-.52-1.21-.35-.33-.76-.49-1.23-.49h-1.67c-.42,0-.79,.13-1.11,.38-.32,.26-.52,.59-.59,1.01l-.38,2c-.09,.48,.02,.9,.33,1.26,.31,.37,.7,.55,1.18,.55Zm.22-12.85h2.33v2.33h-2.33v-2.33Z"/>
          <path class="cls-3" d="M199.92,164.81v4.3c0,.53,.2,.98,.59,1.34,.39,.37,.85,.55,1.38,.55h2.85c.11,0,.2,.04,.27,.12,.07,.08,.11,.18,.11,.29v1.45c0,.26-.13,.38-.38,.38h-2.52c-.44,0-.87-.09-1.29-.27s-.76-.46-1.01-.82v1.21c0,.64-.1,1.26-.3,1.85-.2,.59-.48,1.14-.84,1.63-.36,.49-.79,.93-1.3,1.3-.51,.37-1.07,.66-1.67,.86l-3.12,1.1-.6-1.89,3.32-1.1c.8-.26,1.44-.72,1.92-1.4,.47-.68,.71-1.43,.71-2.25v-8.66h1.89Zm-2.14-5.56h2.33v2.33h-2.33v-2.33Z"/>
          <path class="cls-3" d="M214.61,172.87c0,.26-.13,.38-.38,.38h-1.7c-.31,0-.62-.05-.93-.14-.31-.09-.6-.22-.88-.38-.27-.16-.51-.36-.71-.58-.2-.22-.34-.46-.41-.71-.31,.53-.75,.96-1.33,1.3-.58,.34-1.18,.51-1.82,.51h-1.7c-.26,0-.38-.13-.38-.38v-1.45c0-.11,.04-.21,.11-.29,.07-.08,.16-.12,.27-.12h1.78c.53,0,.99-.16,1.38-.49,.39-.33,.64-.74,.75-1.23l.85-4.33,1.86,.3-.71,3.62c-.05,.27-.04,.54,.03,.81,.07,.26,.2,.49,.38,.69,.18,.19,.4,.35,.66,.47,.26,.12,.53,.18,.82,.18h1.67c.11,0,.2,.04,.27,.12,.07,.08,.11,.18,.11,.29v1.45Zm-8.11,6h2.33v-2.33h-2.33v2.33Zm3.76,0h2.33v-2.33h-2.33v2.33Z"/>
          <path class="cls-3" d="M216.64,171.01v-3.34c0-.53,.1-1.03,.3-1.49,.2-.47,.47-.87,.81-1.22,.34-.35,.74-.62,1.21-.82,.47-.2,.97-.3,1.52-.3h1.04c.86,0,1.62,.27,2.29,.82s1.08,1.25,1.25,2.11l.41,2.17c.11,.55,.1,1.08-.04,1.6-.14,.52-.37,.98-.7,1.38-.33,.4-.74,.73-1.22,.97-.48,.25-1.01,.37-1.58,.37h-2.3c-.2,0-.39-.02-.58-.07s-.37-.1-.55-.15c.02,0,.03,.09,.03,.27,0,.88,.17,1.55,.52,2.01,.35,.47,.88,.77,1.59,.92l2.47,.47,2.22-3.45c.95-1.5,2.33-2.25,4.14-2.25h.38c.26,0,.38,.13,.38,.38v1.45c0,.11-.04,.21-.11,.29-.07,.08-.16,.12-.27,.12h-.85c-.53,0-.98,.11-1.36,.34-.38,.23-.72,.58-1.03,1.06-.04,.05-.12,.19-.26,.41-.14,.22-.3,.48-.49,.78-.19,.3-.4,.62-.62,.95-.22,.33-.42,.63-.6,.92-.18,.28-.34,.52-.47,.73s-.2,.31-.22,.33l-4.08-.9c-1.02-.22-1.81-.71-2.37-1.47s-.84-1.8-.86-3.14h-2.41c-.11,0-.2-.04-.27-.12-.07-.08-.11-.18-.11-.29v-1.45c0-.26,.13-.38,.38-.38h2.41Zm1.89-3.37v3.37h3.59c.24,0,.46-.05,.66-.15,.2-.1,.37-.23,.51-.4,.14-.16,.24-.36,.3-.58,.06-.22,.08-.45,.04-.69l-.36-1.86c-.07-.42-.27-.76-.59-1.03-.32-.26-.69-.4-1.11-.4h-1.34c-.48,0-.88,.17-1.21,.51-.33,.34-.49,.74-.49,1.22Z"/>
          <path class="cls-3" d="M229.85,173.25c-.26,0-.38-.13-.38-.38v-1.45c0-.09,.04-.18,.11-.27,.07-.09,.16-.14,.27-.14h4.47c.88,0,1.72-.15,2.54-.44,.81-.29,1.54-.73,2.18-1.32l2.41-2.25c.22-.2,.38-.33,.49-.38l-6.55-1.95c-.35-.11-.67-.08-.97,.1-.3,.17-.51,.42-.62,.75l-.71,2.19-1.64-.47,.63-2.17c.13-.44,.33-.83,.62-1.16s.61-.61,.99-.81,.78-.32,1.21-.37c.43-.05,.85,0,1.27,.12l10.58,3.18-.58,1.84-1.1-.33c-.46-.09-.85-.09-1.17,0-.32,.09-.62,.25-.89,.47v1.01c0,.55,.2,1.01,.59,1.4s.86,.58,1.41,.58h3.62c.11,0,.2,.04,.28,.12,.07,.08,.11,.17,.11,.26v1.48c0,.26-.13,.38-.38,.38h-3.29c-.55,0-1.05-.1-1.51-.29-.46-.19-.86-.46-1.21-.79-.35-.34-.63-.74-.84-1.21-.21-.47-.34-.96-.4-1.49l-1.89,1.75c-.73,.66-1.56,1.16-2.48,1.51-.92,.35-1.88,.52-2.86,.52h-4.3Zm7.54,3.29h2.33v2.33h-2.33v-2.33Z"/>
          <path class="cls-3" d="M251.94,171.01c.55,0,1.01-.19,1.4-.58s.58-.84,.58-1.37v-5.04h1.89v5.04c0,.58-.11,1.13-.33,1.64s-.52,.95-.9,1.33c-.38,.38-.83,.67-1.33,.89-.5,.22-1.05,.33-1.63,.33h-2.99c-.26,0-.38-.13-.38-.38v-1.45c0-.11,.04-.21,.11-.29,.07-.08,.16-.12,.27-.12h3.32Zm-2.25-10.2h2.33v-2.33h-2.33v2.33Zm3.75,0h2.33v-2.33h-2.33v2.33Z"/>
          <path class="cls-3" d="M264.96,164.02v4.08c0,.4,.08,.78,.23,1.14,.16,.36,.37,.66,.64,.92,.27,.26,.59,.46,.95,.62,.36,.16,.74,.23,1.14,.23h10.85c.55,0,1.01-.19,1.4-.58s.58-.85,.58-1.4v-4.25h1.89v4.25c0,.55,.19,1.01,.58,1.4,.38,.38,.85,.58,1.4,.58h.82c.26,0,.38,.13,.38,.38v1.48c0,.26-.13,.38-.38,.38h-.47c-.68,0-1.3-.16-1.86-.47s-1.03-.76-1.4-1.34c-.4,.6-.89,1.06-1.45,1.36-.57,.3-1.18,.45-1.84,.45h-10.42c-.68,0-1.31-.13-1.91-.38-.59-.26-1.11-.6-1.56-1.04s-.8-.95-1.06-1.55-.38-1.23-.38-1.91v-4.36h1.86Zm4.85,0h2.33v-2.33h-2.33v2.33Zm3.75,0h2.33v-2.33h-2.33v2.33Z"/>
          <path class="cls-3" d="M287.76,165.58l-1.37-1.29,7.18-8.41,1.37,1.26-5.43,6.39h10.8c.53,0,1.03,.1,1.51,.3,.47,.2,.89,.48,1.23,.82,.35,.35,.62,.76,.82,1.23,.2,.48,.3,.98,.3,1.51v2.03c0,.53-.11,1.03-.32,1.49-.21,.47-.49,.87-.85,1.22s-.77,.62-1.23,.82c-.47,.2-.96,.3-1.49,.3h-14.86c-.11,0-.2-.04-.27-.12-.07-.08-.11-.18-.11-.29v-1.45c0-.26,.13-.38,.38-.38h15.13c.47,0,.88-.16,1.22-.49,.34-.33,.51-.74,.51-1.23v-1.84c0-.51-.18-.95-.55-1.32-.37-.37-.8-.55-1.32-.55h-12.66Z"/>
          <path class="cls-3" d="M310.1,164.81v4.3c0,.53,.2,.98,.59,1.34,.39,.37,.85,.55,1.38,.55h2.74c.11,0,.2,.04,.27,.12,.07,.08,.11,.18,.11,.29v1.45c0,.26-.13,.38-.38,.38h-2.41c-.44,0-.87-.09-1.29-.27s-.76-.46-1.01-.82v1.21c0,.64-.1,1.26-.3,1.85-.2,.59-.48,1.14-.84,1.63-.36,.49-.79,.93-1.3,1.3-.51,.37-1.07,.66-1.67,.86l-3.12,1.1-.6-1.89,3.32-1.1c.8-.26,1.44-.72,1.92-1.4,.47-.68,.71-1.43,.71-2.25v-8.66h1.89Z"/>
          <path class="cls-3" d="M322.13,173.25c-.68,0-1.3-.16-1.86-.47-.57-.31-1.03-.76-1.4-1.34-.38,.58-.86,1.03-1.43,1.34s-1.18,.47-1.84,.47h-.79c-.11,0-.21-.04-.29-.11-.08-.07-.11-.16-.1-.27v-1.48c0-.26,.13-.38,.38-.38h1.12c.55,0,1.02-.19,1.41-.58,.39-.38,.59-.86,.59-1.43v-4.25h1.89v4.3c0,.55,.19,1.01,.58,1.38,.38,.38,.85,.56,1.4,.56h.47c.53,0,.99-.16,1.38-.48,.39-.32,.64-.74,.75-1.27l.85-4.3,1.89,.3-.74,3.62c-.05,.29-.04,.57,.04,.82s.21,.48,.38,.67c.17,.19,.39,.35,.64,.47,.26,.12,.53,.18,.82,.18h2.36v-7.04h1.89v6.82c0,.75-.22,1.35-.67,1.8s-1.05,.67-1.8,.67h-1.78c-.62,0-1.2-.16-1.74-.47s-.95-.76-1.22-1.34c-.38,.62-.85,1.08-1.41,1.37-.56,.29-1.16,.44-1.79,.44Zm2.47-11.54h-2.33v-2.33h2.33v2.33Zm1.81-3.34h-2.33v-2.33h2.33v2.33Zm1.95,3.34h-2.33v-2.33h2.33v2.33Z"/>
        </g>
        <text class="cls-1" transform="translate(62.48 170.62)"><tspan x="0" y="0" xml:space="preserve"> تبث هرامش(</tspan></text>
      </g>
      <g>
        <g>
          <path class="cls-3" d="M17.26,127.57c-1.62,0-3.15-.31-4.58-.94-1.44-.63-2.7-1.48-3.78-2.56-1.08-1.08-1.93-2.35-2.56-3.82-.63-1.47-.94-3.01-.94-4.63v-11.69H13.84v9.89c0,.6,.21,1.09,.63,1.48,.42,.39,.9,.58,1.44,.58h14.83c1.08,0,2.05-.27,2.92-.81,.87-.54,1.56-1.23,2.07-2.07,.51-.84,.78-1.75,.81-2.74,.03-.99-.22-1.96-.76-2.92l-11.15-19.87,8.36-5.48,11.96,21.21c1.56,2.7,2.26,5.48,2.11,8.36-.15,2.88-.91,5.5-2.29,7.87-1.38,2.37-3.3,4.31-5.75,5.84-2.46,1.53-5.24,2.29-8.36,2.29h-13.39Z"/>
          <path class="cls-3" d="M66.79,127.57h-9.89v-61.57h9.89v61.57Z"/>
          <path class="cls-3" d="M87.64,95.39v16.81c0,1.08,.45,1.96,1.35,2.65,.9,.69,1.89,1.03,2.97,1.03h6.56c.84,0,1.26,.42,1.26,1.26v9.17c0,.84-.42,1.26-1.26,1.26h-4.94c-1.02,0-2.1-.18-3.24-.54-1.14-.36-2.04-1.11-2.7-2.25v1.62c0,2.28-.38,4.45-1.12,6.52-.75,2.07-1.78,3.97-3.1,5.71-1.32,1.74-2.88,3.25-4.67,4.54-1.8,1.29-3.78,2.29-5.93,3.01l-12.4,4.22-3.06-9.26,12.94-4.23c2.28-.72,4.09-2.05,5.44-4,1.35-1.95,2.02-4.09,2.02-6.43v-31.1h9.89Z"/>
          <path class="cls-3" d="M98.52,115.88h13.3c.84,0,1.26,.42,1.26,1.26v9.17c0,.84-.42,1.26-1.26,1.26h-13.3c-.84,0-1.26-.42-1.26-1.26v-9.17c0-.84,.42-1.26,1.26-1.26Z"/>
          <path class="cls-3" d="M111.82,115.88h13.3c.84,0,1.26,.42,1.26,1.26v9.17c0,.84-.42,1.26-1.26,1.26h-13.3c-.84,0-1.26-.42-1.26-1.26v-9.17c0-.84,.42-1.26,1.26-1.26Z"/>
          <path class="cls-3" d="M125.12,115.88h13.3c.84,0,1.26,.42,1.26,1.26v9.17c0,.84-.42,1.26-1.26,1.26h-13.3c-.84,0-1.26-.42-1.26-1.26v-9.17c0-.84,.42-1.26,1.26-1.26Z"/>
          <path class="cls-3" d="M138.43,115.88h13.3c.84,0,1.26,.42,1.26,1.26v9.17c0,.84-.42,1.26-1.26,1.26h-13.3c-.84,0-1.26-.42-1.26-1.26v-9.17c0-.84,.42-1.26,1.26-1.26Z"/>
          <path class="cls-3" d="M151.73,115.88h13.3c.84,0,1.26,.42,1.26,1.26v9.17c0,.84-.42,1.26-1.26,1.26h-13.3c-.84,0-1.26-.42-1.26-1.26v-9.17c0-.84,.42-1.26,1.26-1.26Z"/>
          <path class="cls-3" d="M165.03,115.88h13.3c.84,0,1.26,.42,1.26,1.26v9.17c0,.84-.42,1.26-1.26,1.26h-13.3c-.84,0-1.26-.42-1.26-1.26v-9.17c0-.84,.42-1.26,1.26-1.26Z"/>
          <path class="cls-3" d="M178.34,115.88h13.3c.84,0,1.26,.42,1.26,1.26v9.17c0,.84-.42,1.26-1.26,1.26h-13.3c-.84,0-1.26-.42-1.26-1.26v-9.17c0-.84,.42-1.26,1.26-1.26Z"/>
          <path class="cls-3" d="M191.64,115.88h13.3c.84,0,1.26,.42,1.26,1.26v9.17c0,.84-.42,1.26-1.26,1.26h-13.3c-.84,0-1.26-.42-1.26-1.26v-9.17c0-.84,.42-1.26,1.26-1.26Z"/>
          <path class="cls-3" d="M239.91,126.31c0,.3-.12,.58-.36,.85-.24,.27-.54,.4-.9,.4h-6.83c-1.92,0-3.84-.52-5.75-1.57-1.92-1.05-3.21-2.29-3.87-3.73-.42,.72-1.02,1.39-1.8,2.02-.78,.63-1.63,1.2-2.56,1.71-.93,.51-1.92,.9-2.97,1.17-1.05,.27-2.08,.4-3.1,.4h-6.83c-.84,0-1.26-.42-1.26-1.26v-9.08c0-.36,.12-.67,.36-.94,.24-.27,.54-.4,.9-.4h7.73c1.2,0,2.25-.36,3.15-1.08,.9-.72,1.47-1.68,1.71-2.88l3.33-16.18,9.71,1.71-2.7,13.57c-.3,1.26-.03,2.38,.81,3.37,.84,.99,1.92,1.48,3.24,1.48h6.74c.36,0,.66,.13,.9,.4,.24,.27,.36,.58,.36,.94v9.08Zm-30.74,22.38h10.25v-10.34h-10.25v10.34Zm14.92,0h10.34v-10.34h-10.34v10.34Z"/>
          <path class="cls-3" d="M238.65,127.57c-.84,0-1.26-.42-1.26-1.26v-9.17c0-.84,.42-1.26,1.26-1.26h8.27c-.36-.24-.62-.6-.76-1.08-.15-.48-.23-1.02-.23-1.62s.04-1.21,.13-1.84c.09-.63,.17-1.15,.23-1.57l1.26-6.11c.36-1.62,.96-3.13,1.8-4.54,.84-1.41,1.86-2.61,3.06-3.6,1.2-.99,2.56-1.77,4.09-2.34,1.53-.57,3.13-.85,4.81-.85h3.69c1.98,0,3.85,.39,5.62,1.17,1.77,.78,3.31,1.83,4.63,3.15,1.32,1.32,2.37,2.86,3.15,4.63,.78,1.77,1.17,3.64,1.17,5.62v4.67c0,1.08-.12,2.04-.36,2.88-.24,.84-.39,1.32-.45,1.44h13.66v-12.94c0-1.26-.36-2.38-1.08-3.37-.72-.99-1.68-1.69-2.88-2.11l-32.18-9.98,2.7-10.25,31.19,9.71c1.8,.54,3.44,1.35,4.94,2.43,1.5,1.08,2.77,2.34,3.82,3.78,1.05,1.44,1.87,3.03,2.47,4.76,.6,1.74,.9,3.57,.9,5.48v12.85c0,1.56-.3,3.03-.9,4.4-.6,1.38-1.41,2.58-2.43,3.6s-2.23,1.83-3.64,2.43c-1.41,.6-2.89,.9-4.45,.9h-14.47v-6.56c-.42,1.2-1.09,2.22-2.02,3.06-.93,.84-1.92,1.51-2.97,2.02-1.05,.51-2.08,.88-3.1,1.12-1.02,.24-1.86,.36-2.52,.36h-27.15Zm31.01-11.69v-9.89c0-.9-.33-1.68-.99-2.34-.66-.66-1.47-.99-2.43-.99h-5.84c-.84,0-1.59,.27-2.25,.81-.66,.54-1.05,1.23-1.17,2.07l-1.17,6.92c-.18,.9,.03,1.69,.63,2.38,.6,.69,1.35,1.03,2.25,1.03h10.97Z"/>
        </g>
        <path class="cls-3" d="M65.54,49.75c-.6-3.83-1.99-6.17-3.16-7.59-.91-1.1-1.49-1.44-4.27-4.28-1.51-1.55-2.41-2.47-3.02-3.16-.26-3.93,.67-6.18,1.56-7.49,.17-.26,.72-.98,1.82-2.43,1.09-1.45,1.99-2.62,2.6-3.41-1.25,2.02-2.18,4.2-1.88,7.12,.36,3.51,2.45,7.42,2.9,8.26,1.64,3.07,3.17,4.56,3.72,7.61,.39,2.19,.07,4.1-.26,5.38Z"/>
        <path class="cls-3" d="M64.81,12.05c-.13,1.71-.7,3.93-5.29,10.04-2.86,3.8-3.79,4.48-4.46,6.7-.65,2.15-.55,4.11-.35,5.46-.67-.84-4.53-5.68-3.93-11.38,.27-2.61,1.52-4.6,2.65-6.5,.73-1.22,.85-1.16,2.23-3.22,2.02-3.02,3.03-4.52,3.67-6.38,.47-1.37,1-3.64,.55-6.78,1.48,1.49,4.08,4.59,4.78,9.17,.1,.68,.24,1.63,.15,2.89Z"/>
        <path class="cls-3" d="M65.66,11.5c-.12,4.19-2.71,6.84-4.59,9.88-.6,.78-1.5,1.96-2.6,3.41-1.1,1.45-1.65,2.18-1.82,2.43-.89,1.32-1.82,3.56-1.56,7.49-.14-.16-.26-.31-.38-.45-.2-1.35-.3-3.31,.35-5.46,.67-2.22,1.6-2.9,4.46-6.7,4.59-6.11,5.16-8.33,5.29-10.04,.1-1.25-.04-2.2-.15-2.89-.7-4.57-3.3-7.67-4.78-9.17,4.92,4.88,5.85,8.8,5.77,11.5Z"/>
        <path class="cls-3" d="M72.69,45.24c.47,.96,1.04,2.54,1.02,4.8,0,0,0,.02,0,.03-2.8,4.1-6.66,5.86-8.21,6.48,.56-.72,3.76-4.96,3.88-9.79,.05-2.2-.53-4.55-.71-5.29-.27-1.08-.52-1.73-.85-2.33-.16-.3-.3-.52-.48-.76,0,0,0,0,0,0,.53,.61,1.29,1.51,2.19,2.61,2.57,3.13,2.95,3.82,3.16,4.26Z"/>
        <path class="cls-3" d="M73.85,48.98c-.03,.37-.08,.71-.13,1.01,.05-.33,.09-.67,.13-1.01Z"/>
        <path class="cls-3" d="M74.12,49.43c-.13,.22-.27,.43-.41,.63,.16-.87,.29-2.14,0-3.58-.43-2.09-1.5-3.32-3.18-5.49-2.6-3.37-3.9-5.05-4.65-6.51-.88-1.72-2.34-4.58-1.92-8.2,.45-3.88,2.8-6.48,3.86-7.52-.19,3.1,.48,5.29,1.08,6.65,.6,1.36,1.65,2.84,3.75,5.8,1.32,1.87,1.52,2.02,2.04,2.94,.45,.81,1.59,3,1.95,5.46,.68,4.68-1.72,8.55-2.51,9.82Z"/>
        <path class="cls-3" d="M73.85,48.98c-.04,.34-.08,.68-.13,1.01,0,.02,0,.04-.01,.06,.02-2.27-.55-3.84-1.02-4.8-.21-.44-.59-1.12-3.16-4.26-.9-1.1-1.66-1.99-2.19-2.61,0,0,0,0,0,0-.2-.29-.45-.6-.81-1.12,0,0-.52-.82-1.49-2.27-1.46-2.2-2.29-5.79-1.53-9.27,.84-3.84,3.34-6.15,4.3-6.95-1.07,1.04-3.41,3.64-3.86,7.52-.42,3.63,1.04,6.48,1.92,8.2,.75,1.46,2.05,3.15,4.65,6.51,1.68,2.17,2.74,3.4,3.18,5.49,.19,.92,.21,1.77,.15,2.49Z"/>
        <path class="cls-3" d="M73.71,50.04s0-.04,.01-.06c0,.03,0,.05-.01,.08,0,0,0-.01,0-.02Z"/>
        <path class="cls-3" d="M60.66,57s0,0,0,0c-.24,.29-.42,.47-.48,.54-.8,.81-1.61,1.32-2.17,1.62,.16-.64,.28-1.58,.03-2.61-.43-1.74-1.65-2.58-3.39-4.13-2.9-2.59-4.5-4.01-5.43-6.26-.81-1.96-.76-3.68-.73-4.95,.02-.68,.08-1.33,.18-1.95-.05,.64-.06,1.53,.12,2.57,.09,.54,.54,2.87,2.46,5.23,.76,.93,2.5,2.26,5.98,4.91,.6,.45,1.53,1.16,2.33,2.42,.64,1,.94,1.96,1.09,2.61,0,0,0,0,0,0Z"/>
        <path class="cls-3" d="M60.66,57s0,0,0,0c.08-.36,.15-.88,.07-1.49-.24-1.8-1.65-2.94-2.78-3.88-3.72-3.06-5.6-4.6-6.31-5.55-.52-.69-1.89-2.57-2.29-5.29-.54-3.7,1.06-6.62,1.69-7.65,.19,.92,.57,2.28,1.37,3.75,.25,.45,.98,1.73,4.28,5,2.45,2.42,2.82,2.49,3.86,3.86,1.12,1.47,2.01,2.64,2.3,4.37,.53,3.14-1.27,5.77-2.2,6.88Z"/>
        <path class="cls-3" d="M60.66,57c-.15-.65-.46-1.61-1.09-2.61-.8-1.26-1.74-1.96-2.33-2.42-3.48-2.65-5.22-3.98-5.98-4.91-1.93-2.36-2.37-4.7-2.46-5.23-.18-1.04-.17-1.93-.12-2.57,.45-2.77,1.58-4.89,2.37-6.11-.63,1.03-2.23,3.95-1.69,7.65,.4,2.72,1.77,4.6,2.29,5.29,.71,.95,2.59,2.5,6.31,5.55,1.14,.93,2.54,2.07,2.78,3.88,.08,.61,0,1.13-.07,1.49Z"/>
      </g>
      <text class="cls-6" transform="translate(3.89 245.3)"><tspan x="0" y="0">Hirad</tspan></text>
      <text class="cls-2" transform="translate(6.99 282.13)"><tspan x="0" y="0">Proccess Equipment</tspan></text>
      <text class="cls-4" transform="translate(190.55 239.76)"><tspan x="0" y="0">Company</tspan></text>
      <text class="cls-5" transform="translate(6.64 309.57)"><tspan x="0" y="0">Registration No: 525470</tspan></text>
    </g>
  </g>
</svg>