<svg width="100" height="100" viewBox="0 0 100 100" fill="none" xmlns="http://www.w3.org/2000/svg">
<path d="M70.9677 71.4286H56.4516V70.6952C59.6581 69.9825 62.6726 68.754 65.4452 67.0349L68.2468 69.7937L77.371 60.8143L74.5677 58.0571C76.3145 55.3286 77.5613 52.3619 78.2871 49.2063H82.2581V39.6825H88.7097V36.5079H85.4839C85.4839 20.0063 73.7194 5.81111 57.4016 2.4C56.5645 0.973016 55.0161 0 53.2258 0H46.7742C44.9839 0 43.4355 0.973016 42.5984 2.4C26.2806 5.81111 14.5161 20.0063 14.5161 36.5079H11.2903V39.6825H17.7419V49.2063H21.7129C22.4371 52.3619 23.6855 55.3286 25.4323 58.0571L22.629 60.8143L31.7532 69.7937L34.5548 67.0349C37.3274 68.754 40.3419 69.9809 43.5484 70.6952V71.4286H29.0323C28.729 71.4286 28.4339 71.4651 28.1323 71.473L19.0629 62.546C19.2565 61.7937 19.3548 61.046 19.3548 60.3175C19.3548 54.019 13.0661 49.0317 6.40968 51.3825L4.01935 52.2302L9.00968 57.1429L6.45161 59.6603L1.45968 54.7476L0.598387 57.1C0.201613 58.1889 0 59.2714 0 60.3175C0 65.5698 4.34032 69.8413 9.67742 69.8413C10.4177 69.8413 11.1774 69.7444 11.9419 69.554L16.6565 74.1921C6.82903 78.7762 0 88.6064 0 100H3.22581C3.22581 92.8238 6.27903 86.346 11.1597 81.7222C15.4 86.8857 17.7419 93.354 17.7419 100H20.9677C20.9677 98.9365 20.9 97.8778 20.7935 96.8254H48.3871V100H51.6129V96.8254H79.2065C79.1 97.8778 79.0323 98.9365 79.0323 100H82.2581C82.2581 93.354 84.6 86.8857 88.8403 81.7222C93.721 86.346 96.7742 92.8238 96.7742 100H100C100 84.246 86.9758 71.4286 70.9677 71.4286ZM17.7419 36.5079C17.7419 21.9619 27.8 9.38571 41.9355 5.80794V23.8095H45.1613V4.7619C45.1613 3.88571 45.8839 3.1746 46.7742 3.1746H53.2258C54.1161 3.1746 54.8387 3.88571 54.8387 4.7619V23.8095H58.0645V5.80794C72.2 9.38571 82.2581 21.9619 82.2581 36.5079H79.4823L77.8694 41.2698H22.1306L20.5177 36.5079H17.7419ZM64.421 44.4444C63.6161 51.5762 57.4597 57.1429 50 57.1429C42.5403 57.1429 36.3839 51.5762 35.579 44.4444H64.421ZM35.2677 63.6936L34.1597 62.9333L31.7516 65.3048L27.1887 60.8143L29.5984 58.4444L28.8258 57.354C26.6935 54.3413 25.2774 50.9714 24.6194 47.3381L24.3839 46.0317H20.9677V44.4444H32.3403C33.1581 53.3302 40.7613 60.3175 50 60.3175C59.2387 60.3175 66.8419 53.3302 67.6597 44.4444H79.0323V46.0317H75.6161L75.3806 47.3397C74.7226 50.9714 73.3064 54.3413 71.1742 57.3556L70.4016 58.446L72.8113 60.8159L68.2484 65.3064L65.8403 62.9349L64.7323 63.6952C61.671 65.7936 58.2468 67.1873 54.5548 67.8349L53.2258 68.0667V71.4286H46.7742V68.0667L45.4452 67.8333C41.7548 67.1857 38.3306 65.7921 35.2677 63.6936ZM12.8161 65.9238L11.8516 66.2635C11.0887 66.5349 10.3774 66.6667 9.67742 66.6667C6.35806 66.6667 3.61613 64.1873 3.2629 61.0127L6.45161 64.1492L13.571 57.1429L10.3839 54.0048C13.6097 54.3524 16.129 57.0508 16.129 60.3175C16.129 61.0064 15.9952 61.7063 15.7194 62.4587L15.3742 63.4079L23.9935 71.8905C22.5935 72.1333 21.2274 72.4667 19.9032 72.9L12.8161 65.9238ZM48.3871 93.6508H20.3C19.2581 88.5556 16.9839 83.746 13.6274 79.673C17.9323 76.5048 23.2548 74.6032 29.0323 74.6032H34.6774L48.3871 92.5937V93.6508ZM50 89.4175L38.7097 74.6032H43.5484H56.4516H61.2903L50 89.4175ZM79.7 93.6508H51.6129V92.5937L65.3226 74.6032H70.9677C76.7452 74.6032 82.0677 76.5048 86.3726 79.673C83.0161 83.746 80.7436 88.5556 79.7 93.6508Z" fill="#7A7A7A"/>
<path d="M75.8065 33.3334H24.1936V36.508H75.8065V33.3334Z" fill="#7A7A7A"/>
</svg>
