<svg width="100" height="100" viewBox="0 0 100 100" fill="none" xmlns="http://www.w3.org/2000/svg">
<path d="M98.5627 40.5095L89.7899 39.6324C88.8391 35.972 87.3877 32.4724 85.4633 29.1998L91.0498 22.3716C91.5688 21.7373 91.5231 20.8125 90.9432 20.233L79.7672 9.05682C79.1873 8.47733 78.2631 8.43084 77.6284 8.95018L70.8003 14.5367C67.5274 12.6123 64.0282 11.1607 60.3677 10.2101L59.4905 1.4373C59.4089 0.621288 58.7224 0 57.9026 0H42.0974C41.2775 0 40.5911 0.621288 40.5095 1.43672L39.6323 10.2096C35.972 11.1603 32.4726 12.6119 29.1998 14.5361L22.3716 8.94959C21.7373 8.43045 20.8125 8.47635 20.2328 9.05623L9.05643 20.2328C8.47655 20.8127 8.43084 21.7371 8.94979 22.3714L14.5363 29.1996C12.6119 32.472 11.1605 35.9716 10.2097 39.6322L1.43691 40.5093C0.621288 40.5911 0 41.2777 0 42.0974V57.9028C0 58.7225 0.621288 59.4093 1.43711 59.4907L10.2099 60.3679C11.1607 64.0282 12.6121 67.5278 14.5365 70.8005L8.94998 77.6286C8.43104 78.2629 8.47674 79.1877 9.05662 79.7672L20.2328 90.9434C20.8127 91.5233 21.7371 91.5694 22.3716 91.05L29.1998 85.4635C32.4726 87.3879 35.9718 88.8395 39.6323 89.7901L40.5095 98.5629C40.5911 99.3783 41.2775 99.9996 42.0974 99.9996H57.9026C58.7225 99.9996 59.4089 99.3783 59.4905 98.5629L60.3677 89.7901C64.028 88.8393 67.5274 87.3877 70.8003 85.4635L77.6284 91.05C78.2626 91.569 79.1873 91.5231 79.7672 90.9434L90.9434 79.7672C91.5233 79.1873 91.569 78.2629 91.05 77.6286L85.4635 70.8005C87.3879 67.528 88.8393 64.0284 89.7901 60.3679L98.5629 59.4907C99.3787 59.4093 100 58.7225 100 57.9028V42.0974C99.9998 41.2777 99.3785 40.5911 98.5627 40.5095ZM96.8084 56.4587L88.3498 57.3046C87.6688 57.3727 87.1069 57.8675 86.9535 58.5349C86.0127 62.6262 84.4004 66.5143 82.1614 70.0907C81.7983 70.671 81.8456 71.4182 82.2789 71.9479L87.6655 78.5317L78.5315 87.6655L71.9479 82.2787C71.4184 81.845 70.671 81.7979 70.0907 82.1614C66.5139 84.4002 62.6261 86.0129 58.5347 86.9537C57.8675 87.1071 57.3725 87.6688 57.3044 88.35L56.4583 96.8086H43.5411L42.6952 88.35C42.6271 87.669 42.1323 87.1071 41.465 86.9537C37.3738 86.0129 33.4857 84.4006 29.9089 82.1614C29.3289 81.7979 28.5814 81.8456 28.0517 82.2787L21.4681 87.6655L12.3342 78.5317L17.7207 71.9479C18.1541 71.418 18.2015 70.671 17.8382 70.0907C15.5994 66.5143 13.9867 62.6264 13.0461 58.5347C12.8926 57.8675 12.3308 57.3726 11.6498 57.3044L3.19121 56.4585V43.5413L11.6498 42.6954C12.3308 42.6273 12.8927 42.1325 13.0461 41.4652C13.9869 37.3738 15.5992 33.4857 17.8382 29.9091C18.2015 29.3289 18.1541 28.5816 17.7207 28.0519L12.3342 21.4681L21.4681 12.3344L28.0517 17.7211C28.5812 18.1547 29.3289 18.2019 29.9089 17.8384C33.4857 15.5996 37.3736 13.9869 41.465 13.0461C42.1321 12.8927 42.6271 12.331 42.6952 11.6498L43.5413 3.1916H56.4585L57.3044 11.6502C57.3725 12.3312 57.8673 12.8931 58.5347 13.0465C62.6259 13.9873 66.5139 15.5996 70.0905 17.8388C70.6708 18.2023 71.418 18.1548 71.9477 17.7215L78.5313 12.3345L87.6653 21.4683L82.2787 28.0521C81.8454 28.582 81.7979 29.329 82.1612 29.9093C84.4 33.4857 86.0127 37.3736 86.9533 41.4654C87.1069 42.1325 87.6686 42.6275 88.3496 42.6956L96.808 43.5415V56.4587H96.8084Z" fill="#7A7A7A"/>
<path d="M50.0004 33.5109C40.9082 33.5109 33.511 40.9079 33.511 50.0003C33.511 59.0927 40.9082 66.4897 50.0004 66.4897C59.0926 66.4897 66.4898 59.0927 66.4898 50.0003C66.4898 40.9079 59.0926 33.5109 50.0004 33.5109ZM63.1992 48.4044H56.532C56.3924 44.3642 55.7207 40.3255 54.4635 37.4751C59.1248 39.1413 62.5902 43.339 63.1992 48.4044ZM45.5389 37.4747C44.2811 40.3253 43.6084 44.3634 43.4688 48.4046H36.8018C37.4106 43.3386 40.8766 39.1403 45.5389 37.4747ZM36.8018 51.596H43.4688C43.6084 55.6374 44.2813 59.6753 45.5397 62.526C40.8768 60.8604 37.4106 56.6622 36.8018 51.596ZM51.9969 60.027C51.1006 62.7159 50.1801 63.2981 50.0002 63.2981C49.8203 63.2981 48.9 62.7161 48.0035 60.027C47.2436 57.747 46.7778 54.7977 46.6612 51.596H53.3391C53.2225 54.7975 52.757 57.747 51.9969 60.027ZM46.6617 48.4044C46.7783 45.2026 47.244 42.2534 48.0041 39.9734C48.9002 37.2845 49.8207 36.7023 50.0006 36.7023C50.1803 36.7023 51.1008 37.2843 51.9973 39.9734C52.7572 42.2534 53.2231 45.2026 53.3397 48.4044H46.6617ZM54.4627 62.5255C55.7203 59.6751 56.3926 55.6366 56.532 51.596H63.199C62.5902 56.6616 59.1246 60.8594 54.4627 62.5255Z" fill="#7A7A7A"/>
<path d="M50.0002 15.2131C41.2918 15.2131 32.959 18.4467 26.5366 24.3183C20.1561 30.1515 16.1917 38.0847 15.3737 46.6568C15.2899 47.5339 15.9333 48.3132 16.8104 48.397C17.6934 48.4812 18.4671 47.8374 18.5507 46.9599C20.1044 30.6806 33.6247 18.4045 50.0002 18.4045C67.4221 18.4045 81.5959 32.5783 81.5959 50.0001C81.5959 67.422 67.4221 81.5958 50.0002 81.5958C33.6243 81.5958 20.104 69.3192 18.5507 53.0396C18.4671 52.1622 17.685 51.5191 16.8106 51.6025C15.9331 51.6862 15.2899 52.4652 15.3735 53.3427C16.1915 61.9147 20.1555 69.8483 26.536 75.6817C32.9588 81.5534 41.2916 84.7871 50 84.7871C69.1816 84.7871 84.7873 69.1817 84.7873 49.9999C84.7873 30.8181 69.182 15.2131 50.0002 15.2131Z" fill="#7A7A7A"/>
<path d="M50.0002 27.1279C45.0779 27.1279 40.3869 28.6689 36.4354 31.5845C35.726 32.1077 35.5754 33.1066 36.0987 33.8159C36.6221 34.5253 37.6209 34.6761 38.3299 34.1527C41.7293 31.645 45.7647 30.3195 50.0004 30.3195C60.8525 30.3195 69.6812 39.1482 69.6812 50.0003C69.6812 60.8524 60.8525 69.6811 50.0004 69.6811C39.1483 69.6811 30.3196 60.8524 30.3196 50.0003C30.3196 45.7644 31.6452 41.7286 34.1534 38.3292C34.6764 37.6198 34.5256 36.621 33.8166 36.0978C33.1071 35.5745 32.1086 35.7253 31.5852 36.4343C28.6694 40.3862 27.1282 45.0772 27.1282 50.0001C27.1282 62.612 37.3887 72.8723 50.0004 72.8723C62.6121 72.8723 72.8726 62.612 72.8726 50.0001C72.8726 37.3882 62.6119 27.1279 50.0002 27.1279Z" fill="#7A7A7A"/>
</svg>
