<svg width="100" height="100" viewBox="0 0 100 100" fill="none" xmlns="http://www.w3.org/2000/svg">
<path d="M52.4193 45.1613H51.6128V41.9355H48.387V45.1613H47.5806C43.579 45.1613 40.3225 48.4177 40.3225 52.4194C40.3225 56.421 43.579 59.6774 47.5806 59.6774H52.4193C54.6419 59.6774 56.4515 61.4871 56.4515 63.7097C56.4515 65.9323 54.6419 67.7419 52.4193 67.7419H47.5806C45.358 67.7419 43.5483 65.9323 43.5483 63.7097V62.9032H40.3225V63.7097C40.3225 67.7113 43.579 70.9677 47.5806 70.9677H48.387V74.1936H51.6128V70.9677H52.4193C56.4209 70.9677 59.6773 67.7113 59.6773 63.7097C59.6773 59.7081 56.4209 56.4516 52.4193 56.4516H47.5806C45.358 56.4516 43.5483 54.6419 43.5483 52.4194C43.5483 50.1968 45.358 48.3871 47.5806 48.3871H52.4193C54.6419 48.3871 56.4515 50.1968 56.4515 52.4194V53.2258H59.6773V52.4194C59.6773 48.4177 56.4209 45.1613 52.4193 45.1613Z" fill="#7A7A7A"/>
<path d="M64.5161 56.4516H61.2903V59.6774H64.5161V56.4516Z" fill="#7A7A7A"/>
<path d="M38.7097 56.4516H35.4839V59.6774H38.7097V56.4516Z" fill="#7A7A7A"/>
<path d="M92.8 41.9355C92.3968 39.7935 91.8258 37.6677 91.0936 35.5855L97.3339 31.9839L89.2694 18.0161L83.021 21.621C81.5919 19.9613 80.0371 18.4048 78.3774 16.9774L81.9823 10.729L68.0145 2.66452L64.4129 8.90484C62.3323 8.17419 60.2065 7.60323 58.0645 7.2V0H41.9355V7.2C39.7935 7.60323 37.6677 8.17419 35.5855 8.90645L31.9839 2.66613L18.0161 10.7306L21.621 16.979C19.9613 18.4081 18.4048 19.9629 16.9774 21.6226L10.7306 18.0161L2.66613 31.9839L8.90645 35.5855C8.17419 37.6677 7.60323 39.7935 7.2 41.9355H0V58.0645H7.2C7.60323 60.2065 8.17419 62.3323 8.90645 64.4145L2.66613 68.0161L10.7306 81.9839L16.979 78.379C18.4081 80.0387 19.9629 81.5952 21.6226 83.0226L18.0177 89.271L31.9855 97.3355L35.5871 91.0952C37.6677 91.8274 39.7935 92.3984 41.9371 92.8016V100H58.0661V92.8C60.2081 92.3968 62.3339 91.8258 64.4161 91.0936L68.0177 97.3339L81.9855 89.2694L78.3806 83.021C80.0403 81.5919 81.5968 80.0371 83.0242 78.3774L89.2726 81.9823L97.3371 68.0145L91.0968 64.4129C91.829 62.3323 92.4 60.2065 92.8032 58.0629H100V41.9355H92.8ZM96.7742 54.8387H90.0581L89.8468 56.2048C89.4097 59.0274 88.6564 61.8355 87.6048 64.5468L87.1048 65.8355L92.9274 69.1968L88.0887 77.5774L82.2645 74.2145L81.3984 75.2887C79.5887 77.5323 77.5339 79.5871 75.2903 81.3968L74.2161 82.2629L77.579 88.0871L69.1984 92.9258L65.8371 87.1048L64.5484 87.6048C61.8355 88.6564 59.029 89.4097 56.2065 89.8468L54.8387 90.0581V96.7742H45.1613V90.0581L43.7952 89.8468C40.9726 89.4097 38.1645 88.6564 35.4532 87.6048L34.1645 87.1048L30.8032 92.9258L22.4226 88.0871L25.7855 82.2629L24.7113 81.3968C22.4677 79.5871 20.4129 77.5323 18.6032 75.2887L17.7371 74.2145L11.9129 77.5774L7.07419 69.1968L12.8952 65.8355L12.3952 64.5468C11.3435 61.8339 10.5903 59.0274 10.1532 56.2048L9.94194 54.8387H3.22581V45.1613H9.94194L10.1532 43.7952C10.5903 40.9726 11.3435 38.1645 12.3952 35.4532L12.8952 34.1645L7.07419 30.8032L11.9129 22.4226L17.7371 25.7855L18.6032 24.7113C20.4129 22.4677 22.4677 20.4129 24.7113 18.6032L25.7855 17.7371L22.4226 11.9129L30.8032 7.07419L34.1645 12.8952L35.4532 12.3952C38.1661 11.3435 40.9726 10.5903 43.7952 10.1532L45.1613 9.94194V3.22581H54.8387V9.94194L56.2048 10.1532C59.0274 10.5903 61.8355 11.3435 64.5468 12.3952L65.8355 12.8952L69.1968 7.07419L77.5774 11.9129L74.2145 17.7371L75.2887 18.6032C77.5323 20.4129 79.5871 22.4677 81.3968 24.7113L82.2629 25.7855L88.0871 22.4226L92.9258 30.8032L87.1048 34.1645L87.6048 35.4532C88.6564 38.1661 89.4097 40.9726 89.8468 43.7952L90.0581 45.1613H96.7742V54.8387Z" fill="#7A7A7A"/>
<path d="M53.7291 21.2387L50 14.3549L46.271 21.2387C31.7887 23.0903 20.9678 35.2855 20.9678 50C20.9678 57.5532 23.8597 64.6758 29.0968 70.1145C32.4275 78.1791 40.3678 83.871 49.6194 83.871H50.3791C59.6307 83.871 67.571 78.1774 70.9016 70.1145C76.1404 64.6758 79.0323 57.5532 79.0323 50C79.0323 35.2855 68.2113 23.0903 53.7291 21.2387ZM27.4194 61.6694C27.4194 61.9629 27.4516 62.2484 27.4629 62.5387C25.342 58.742 24.1936 54.4581 24.1936 50C24.1936 37.7355 32.6533 27.4403 44.3178 24.8452L30.1 51.0952C28.3468 54.3339 27.4194 57.9903 27.4194 61.6694ZM50.3791 80.6452H49.6194C39.1581 80.6452 30.6452 72.1323 30.6452 61.6694C30.6452 58.5242 31.4371 55.3984 32.9355 52.6307L50 21.1291L67.0645 52.6323C68.5629 55.4 69.3549 58.5258 69.3549 61.671C69.3549 72.1323 60.842 80.6452 50.3791 80.6452ZM72.5371 62.5387C72.5484 62.2484 72.5807 61.9629 72.5807 61.6694C72.5807 57.9887 71.6533 54.3339 69.9 51.0952L55.6823 24.8452C67.3468 27.4403 75.8065 37.7355 75.8065 50C75.8065 54.4581 74.6581 58.742 72.5371 62.5387Z" fill="#7A7A7A"/>
</svg>
