<svg width="100" height="100" viewBox="0 0 100 100" fill="none" xmlns="http://www.w3.org/2000/svg">
<path d="M100 96.7742H96.7742V100H100V96.7742Z" fill="#7A7A7A"/>
<path d="M100 35.4839V32.2581H67.7419V35.4839H70.9677V50H67.7419V53.2258H70.9677V67.7419H65.9677L59.8565 9.67742H62.9032V0H43.5484V9.67742H46.5952L40.4839 67.7419H37.8468L12.8355 38.0403C12.4952 34.8 9.78065 32.2581 6.45161 32.2581C2.89355 32.2581 0 35.1516 0 38.7097C0 41.7081 2.0629 44.2113 4.83871 44.9323V96.7742H0V100H93.5484V96.7742H90.3226V80.6452H100V67.7419H96.7742V53.2258H100V50H96.7742V35.4839H100ZM74.1936 35.4839H93.5484V50H74.1936V35.4839ZM74.1936 53.2258H93.5484V67.7419H74.1936V53.2258ZM62.6258 66.7968L49.0548 53.2258H61.1968L62.6258 66.7968ZM60.7048 48.5516L50.3952 37.0968H59.4984L60.7048 48.5516ZM48.9903 17.7419L49.8387 9.67742H56.6129L57.4613 17.7419H48.9903ZM57.8016 20.9677L58.9194 31.5887L51.4855 20.9677H57.8016ZM56.579 33.871H47.2919L48.5065 22.3371L56.579 33.871ZM46.7742 3.22581H59.6774V6.45161H59.5161H46.9355H46.7742V3.22581ZM46.8597 37.9887L57.6694 50H45.5952L46.8597 37.9887ZM45.1823 53.9145L59.0097 67.7419H43.7258L45.1823 53.9145ZM33.629 67.7419H26.6548L24.4371 64.5161H30.9129L33.629 67.7419ZM23.3806 55.571L28.1968 61.2903H22.2194L21.5065 60.2532L23.3806 55.571ZM21.0258 52.7726L19.3113 57.0581L13.4484 48.5306L19.7145 51.2161L21.0258 52.7726ZM11.9645 42.0129L15.0919 45.7274L10.4468 43.7371C11.05 43.2548 11.5645 42.6774 11.9645 42.0129ZM3.22581 38.7097C3.22581 36.9306 4.67258 35.4839 6.45161 35.4839C8.23065 35.4839 9.67742 36.9306 9.67742 38.7097C9.67742 40.4887 8.23065 41.9355 6.45161 41.9355C4.67258 41.9355 3.22581 40.4887 3.22581 38.7097ZM20.9677 96.7742H8.06452V46.3952L17.871 60.6581L17.8581 60.6919L17.9081 60.7113L22.7403 67.7419H11.2903V80.6452H20.9677V96.7742ZM37.0968 90.3226H35.4839V93.5484H37.0968V96.7742H24.1935V93.5484H32.2581V90.3226H24.1935V80.6452H37.0968V90.3226ZM70.9677 96.7742H40.3226V80.6452H70.9677V96.7742ZM87.0968 90.3226H85.4839V93.5484H87.0968V96.7742H74.1936V93.5484H82.2581V90.3226H74.1936V80.6452H87.0968V90.3226ZM96.7742 77.4194H14.5161V70.9677H40.1452H66.3064H96.7742V77.4194Z" fill="#7A7A7A"/>
<path d="M80.6452 38.7097H77.4194V41.9355H80.6452V38.7097Z" fill="#7A7A7A"/>
<path d="M87.0969 38.7097H83.8711V41.9355H87.0969V38.7097Z" fill="#7A7A7A"/>
<path d="M90.3225 61.2903H87.0967V64.5162H90.3225V61.2903Z" fill="#7A7A7A"/>
<path d="M83.8711 61.2903H80.6453V64.5162H83.8711V61.2903Z" fill="#7A7A7A"/>
</svg>
